<svg width="25" height="25" viewBox="0 0 25 25" fill="none" xmlns="http://www.w3.org/2000/svg">
<path d="M16.5425 17.6895H9.54248" stroke="#4285F4" stroke-width="1.5" stroke-linecap="round" stroke-linejoin="round"/>
<path d="M16.5425 13.6895H13.5425" stroke="#4285F4" stroke-width="1.5" stroke-linecap="round" stroke-linejoin="round"/>
<path d="M21.0425 14.6895C21.0425 18.4607 21.0425 20.3464 19.7977 21.5179C18.5529 22.6895 16.5494 22.6895 12.5425 22.6895H11.7698C8.50855 22.6895 6.87794 22.6895 5.74555 21.8917C5.4211 21.6631 5.13306 21.392 4.89018 21.0866C4.04248 20.0208 4.04248 18.4861 4.04248 15.4168V12.8713C4.04248 9.9081 4.04248 8.42651 4.51142 7.2432C5.26529 5.34087 6.85962 3.84033 8.88084 3.1308C10.1381 2.68945 11.7123 2.68945 14.8607 2.68945C16.6598 2.68945 17.5593 2.68945 18.2777 2.94165C19.4327 3.3471 20.3437 4.20455 20.7745 5.29159C21.0425 5.96777 21.0425 6.81439 21.0425 8.50763V14.6895Z" stroke="#4285F4" stroke-width="1.5" stroke-linejoin="round"/>
<path d="M4.04248 12.6895C4.04248 10.8486 5.53486 9.35612 7.37581 9.35612C8.0416 9.35612 8.82652 9.47278 9.47385 9.29933C10.049 9.14521 10.4982 8.69597 10.6524 8.12081C10.8258 7.47349 10.7092 6.68857 10.7092 6.02278C10.7092 4.18183 12.2016 2.68945 14.0425 2.68945" stroke="#4285F4" stroke-width="1.5" stroke-linecap="round" stroke-linejoin="round"/>
</svg>
