<svg width="25" height="25" viewBox="0 0 25 25" fill="none" xmlns="http://www.w3.org/2000/svg">
<path d="M7.11499 7.17285H16.865C18.9717 7.17285 20.025 7.17285 20.7817 7.67844C21.1093 7.89732 21.3905 8.17857 21.6094 8.50614C22.0729 9.19979 22.1115 9.93266 22.1147 11.6729M12.115 7.17285L11.4816 5.90598C10.9568 4.85643 10.4772 3.79997 9.31425 3.36386C8.80489 3.17285 8.22301 3.17285 7.05926 3.17285C5.24279 3.17285 4.33455 3.17285 3.65305 3.55317C3.16726 3.82427 2.76641 4.22512 2.49531 4.71091C2.11499 5.39241 2.11499 6.30065 2.11499 8.11712V11.1729C2.11499 15.8869 2.11499 18.244 3.57946 19.7084C4.87959 21.0086 6.88319 21.1545 10.615 21.1708H11.115" stroke="#141B34" stroke-width="1.5" stroke-linecap="round"/>
<path d="M17.6706 22.1729H18.5594C20.2355 22.1729 21.0736 22.1729 21.5943 21.6457C22.115 21.1185 22.115 20.27 22.115 18.5729V18.2641C22.115 17.5283 22.115 17.1604 21.9797 16.8297C21.8443 16.4989 21.5874 16.2387 21.0736 15.7185L19.7638 14.3923C19.3473 13.9706 19.1391 13.7598 18.8997 13.6035C18.6302 13.4276 18.3315 13.3024 18.0181 13.2338C17.7397 13.1729 17.4452 13.1729 16.8562 13.1729C15.9578 13.1729 15.5086 13.1729 15.1587 13.3335C14.7661 13.5137 14.4516 13.8322 14.2736 14.2297C14.115 14.5839 14.115 15.0388 14.115 15.9484V18.5729C14.115 20.27 14.115 21.1185 14.6357 21.6457C15.1564 22.1729 15.9945 22.1729 17.6706 22.1729Z" stroke="#141B34" stroke-width="1.5" stroke-linejoin="round"/>
</svg>
