<svg width="94" height="33" viewBox="0 0 94 33" fill="none" xmlns="http://www.w3.org/2000/svg">
<path d="M11.1597 24.5684L6.77969 16.6184H5.54969V24.5684H0.419692V3.50836H9.02969C10.6897 3.50836 12.0997 3.79836 13.2597 4.37836C14.4397 4.95836 15.3197 5.75836 15.8997 6.77836C16.4797 7.77836 16.7697 8.89836 16.7697 10.1384C16.7697 11.5384 16.3697 12.7884 15.5697 13.8884C14.7897 14.9884 13.6297 15.7684 12.0897 16.2284L16.9497 24.5684H11.1597ZM5.54969 12.9884H8.72969C9.66969 12.9884 10.3697 12.7584 10.8297 12.2984C11.3097 11.8384 11.5497 11.1884 11.5497 10.3484C11.5497 9.54836 11.3097 8.91836 10.8297 8.45836C10.3697 7.99836 9.66969 7.76836 8.72969 7.76836H5.54969V12.9884ZM27.61 24.8084C25.97 24.8084 24.49 24.4584 23.17 23.7584C21.87 23.0584 20.84 22.0584 20.08 20.7584C19.34 19.4584 18.97 17.9384 18.97 16.1984C18.97 14.4784 19.35 12.9684 20.11 11.6684C20.87 10.3484 21.91 9.33836 23.23 8.63836C24.55 7.93836 26.03 7.58836 27.67 7.58836C29.31 7.58836 30.79 7.93836 32.11 8.63836C33.43 9.33836 34.47 10.3484 35.23 11.6684C35.99 12.9684 36.37 14.4784 36.37 16.1984C36.37 17.9184 35.98 19.4384 35.2 20.7584C34.44 22.0584 33.39 23.0584 32.05 23.7584C30.73 24.4584 29.25 24.8084 27.61 24.8084ZM27.61 20.3684C28.59 20.3684 29.42 20.0084 30.1 19.2884C30.8 18.5684 31.15 17.5384 31.15 16.1984C31.15 14.8584 30.81 13.8284 30.13 13.1084C29.47 12.3884 28.65 12.0284 27.67 12.0284C26.67 12.0284 25.84 12.3884 25.18 13.1084C24.52 13.8084 24.19 14.8384 24.19 16.1984C24.19 17.5384 24.51 18.5684 25.15 19.2884C25.81 20.0084 26.63 20.3684 27.61 20.3684ZM44.2216 2.36836V24.5684H39.0916V2.36836H44.2216ZM53.0692 2.36836V24.5684H47.9392V2.36836H53.0692ZM59.3669 6.08836C58.4669 6.08836 57.7269 5.82836 57.1469 5.30836C56.5869 4.76836 56.3069 4.10836 56.3069 3.32836C56.3069 2.52836 56.5869 1.86836 57.1469 1.34836C57.7269 0.808358 58.4669 0.538358 59.3669 0.538358C60.2469 0.538358 60.9669 0.808358 61.5269 1.34836C62.1069 1.86836 62.3969 2.52836 62.3969 3.32836C62.3969 4.10836 62.1069 4.76836 61.5269 5.30836C60.9669 5.82836 60.2469 6.08836 59.3669 6.08836ZM61.9169 7.82836V24.5684H56.7869V7.82836H61.9169ZM74.0345 12.0884H71.2745V24.5684H66.1445V12.0884H64.2845V7.82836H66.1445V7.34836C66.1445 5.28836 66.7345 3.72836 67.9145 2.66836C69.0945 1.58836 70.8245 1.04836 73.1045 1.04836C73.4845 1.04836 73.7645 1.05836 73.9445 1.07836V5.42836C72.9645 5.36836 72.2745 5.50836 71.8745 5.84836C71.4745 6.18836 71.2745 6.79836 71.2745 7.67836V7.82836H74.0345V12.0884ZM93.5451 7.82836L83.0451 32.5184H77.5251L81.3651 23.9984L74.5551 7.82836H80.2851L84.1551 18.2984L87.9951 7.82836H93.5451Z" fill="#4285F4"/>
</svg>
