<svg width="25" height="25" viewBox="0 0 25 25" fill="none" xmlns="http://www.w3.org/2000/svg">
<path d="M19.615 6.16113L18.9953 16.1862C18.8369 18.7475 18.7578 20.0282 18.1158 20.949C17.7983 21.4042 17.3897 21.7884 16.9157 22.0771C15.9571 22.6611 14.674 22.6611 12.1077 22.6611C9.53811 22.6611 8.25329 22.6611 7.29404 22.076C6.81979 21.7868 6.41099 21.4019 6.09367 20.9459C5.45187 20.0237 5.37444 18.7412 5.2196 16.1763L4.61499 6.16113" stroke="#141B34" stroke-width="1.5" stroke-linecap="round"/>
<path d="M21.115 6.16113H3.11499" stroke="#141B34" stroke-width="1.5" stroke-linecap="round"/>
<path d="M9.11499 12.3965H15.115" stroke="#141B34" stroke-width="1.5" stroke-linecap="round"/>
<path d="M16.1725 6.16113L15.4898 4.75286C15.0363 3.81739 14.8096 3.34965 14.4185 3.05794C14.3317 2.99323 14.2399 2.93567 14.1438 2.88583C13.7107 2.66113 13.1909 2.66113 12.1513 2.66113C11.0856 2.66113 10.5527 2.66113 10.1124 2.89525C10.0148 2.94714 9.92174 3.00703 9.83405 3.0743C9.43839 3.37783 9.21738 3.86268 8.77536 4.83239L8.16968 6.16113" stroke="#141B34" stroke-width="1.5" stroke-linecap="round"/>
<path d="M10.615 16.3154H13.615" stroke="#141B34" stroke-width="1.5" stroke-linecap="round"/>
</svg>
